<svg width="54" height="54" viewBox="0 0 54 54" fill="none" xmlns="http://www.w3.org/2000/svg">
<path d="M27.7901 54C20.5409 54 13.7522 51.1199 8.66311 45.8859C3.57872 40.6567 0.858506 33.753 1.00567 26.4426C1.1386 19.8116 3.7164 13.4581 8.25959 8.56383C12.8123 3.65996 18.9268 0.655444 25.4781 0.10047C26.2472 0.0334899 27.0258 0 27.7901 0C36.9192 0 45.3362 4.61682 50.2972 12.353C51.2182 13.7883 51.014 15.702 49.8177 16.9076L30.3442 36.5326C29.6605 37.2216 28.7538 37.5995 27.7853 37.5995C26.8169 37.5995 25.9102 37.2216 25.2265 36.5326L13.8092 25.0265L18.9221 19.8738L27.7806 28.8061L42.4783 13.994L42.222 13.7069C38.5333 9.63072 33.2685 7.296 27.7806 7.296C27.0685 7.296 26.3422 7.33428 25.6253 7.41083C16.2066 8.43466 8.73907 16.41 8.2501 25.9642C7.97 31.4231 9.87368 36.6092 13.6051 40.5658C17.3412 44.5272 22.3734 46.7136 27.7853 46.7136C34.9775 46.7136 41.5763 42.7474 44.9992 36.3652C45.1985 35.992 45.3932 35.5997 45.5688 35.2074C46.148 33.9252 47.4345 33.0975 48.8445 33.0975C50.0788 33.0975 51.2134 33.7195 51.878 34.7625C52.5522 35.8246 52.6424 37.145 52.1202 38.298C51.8828 38.8195 51.6264 39.3362 51.3606 39.8338C46.6702 48.5746 37.6361 54 27.7853 54H27.7901Z" fill="#BCEE95"/>
</svg>
